P2
64 64
255
0 0 0 0 90 190 255 255 255 255 255 255 255 255 255 255 255 255 255 255 255 255 255 255 255 255 255 255 255 255 255 255 255 255 255 255 255 255 255 255 255 255 255 255 255 255 255 255 255 255 255 255 255 255 255 255 255 255 190 90 0 0 0 0 0 0 0 90 255 255 190 90 0 0 0 0 0 0 0 0 0 0 0 0 0 0 0 0 0 0 0 0 0 0 0 0 0 0 0 0 0 0 0 0 0 0 0 0 0 0 0 0 0 0 0 0 0 0 0 0 90 190 255 255 90 0 0 0 0 0 90 255 255 90 0 0 0 0 0 0 0 0 0 0 0 0 0 0 0 0 0 0 0 0 0 0 0 0 0 0 0 0 0 0 0 0 0 0 0 0 0 0 0 0 0 0 0 0 0 0 0 0 0 0 0 0 90 255 255 90 0 0 0 90 255 255 90 0 0 0 0 0 0 0 0 0 0 0 0 0 0 0 0 0 0 0 0 0 0 0 0 0 0 0 0 0 0 0 0 0 0 0 0 0 0 0 0 0 0 0 0 0 0 0 0 0 0 0 0 0 0 90 255 255 90 0 0 190 255 90 0 0 0 0 0 0 0 0 0 0 0 0 0 0 0 0 0 0 0 0 0 0 0 0 0 0 0 0 0 0 0 0 0 0 0 0 0 0 0 0 0 0 0 0 0 0 0 0 0 0 0 0 0 0 0 0 90 255 190 0 90 255 190 15 0 0 0 0 0 0 0 0 15 0 0 0 0 0 0 0 0 0 0 0 0 0 0 0 0 0 0 0 0 0 0 0 0 0 0 0 0 0 0 0 0 0 0 0 0 0 0 15 0 0 0 0 0 0 0 0 15 190 255 90 140 255 90 0 0 0 0 0 0 0 0 0 15 15 0 0 0 0 0 0 0 0 15 15 15 15 15 15 15 15 15 15 15 15 15 15 15 15 15 15 15 15 15 15 15 15 15 15 0 0 15 15 0 0 0 0 0 0 0 0 0 90 255 140 190 255 45 0 0 0 0 0 0 0 15 15 15 45 90 90 90 90 90 90 90 90 90 90 90 90 90 90 90 90 90 90 90 90 90 90 90 90 90 90 90 90 90 90 90 90 90 90 90 90 90 15 0 0 0 0 0 0 0 0 0 90 255 190 190 190 90 0 0 0 0 0 0 15 0 45 90 90 45 45 15 15 15 15 15 15 15 15 15 15 15 15 15 15 15 15 15 15 15 15 15 15 15 15 15 15 15 15 15 15 15 15 45 45 90 90 90 0 15 0 0 0 0 0 0 90 190 190 190 190 90 0 0 0 0 0 15 0 90 90 15 15 15 15 15 15 15 15 15 15 15 15 90 90 90 90 90 15 15 15 15 15 15 15 15 15 15 15 15 15 15 15 15 15 15 15 15 15 15 15 90 90 0 15 0 0 0 0 0 90 190 190 190 190 90 0 0 0 0 0 15 45 90 0 15 15 15 0 0 0 0 0 0 45 140 190 190 190 190 190 190 140 90 0 0 0 0 0 0 45 90 90 90 45 15 0 0 0 0 0 0 15 15 15 0 90 45 15 0 0 0 0 0 90 190 190 190 190 45 0 0 0 0 45 0 90 15 15 15 0 0 0 0 0 0 0 90 190 190 140 45 45 45 15 45 140 190 90 0 0 0 45 140 190 190 190 190 190 140 90 0 0 0 0 0 0 0 15 15 15 90 0 15 0 0 0 0 90 190 190 190 190 45 0 0 0 0 45 45 90 15 15 0 0 0 0 0 0 0 90 190 140 0 90 90 90 90 90 90 45 140 190 90 0 90 190 190 90 15 15 0 90 190 190 90 15 0 0 0 0 0 0 15 15 90 45 45 0 0 0 0 90 190 190 190 190 45 0 0 0 0 45 45 90 15 15 0 0 0 0 0 0 15 140 140 15 90 90 45 15 15 45 90 90 15 190 140 90 190 140 0 90 90 90 90 90 45 140 190 90 15 0 0 0 0 0 15 15 90 90 15 0 0 0 0 90 190 190 190 190 45 0 0 0 0 15 45 45 15 15 0 0 0 0 0 0 90 190 45 90 90 45 15 15 15 15 15 90 90 90 190 140 140 15 90 90 45 45 45 90 90 90 140 190 90 0 0 0 0 0 15 15 45 90 15 0 0 0 0 45 190 190 190 190 45 0 0 0 0 15 45 45 15 15 0 0 0 0 0 0 140 190 15 90 45 15 15 15 15 15 15 45 90 0 90 140 15 90 90 45 45 45 45 45 90 90 45 140 140 15 0 0 0 0 15 15 45 45 15 0 0 0 0 45 190 190 190 190 45 0 0 0 0 45 45 45 15 0 0 0 0 0 0 0 140 140 45 90 15 15 15 0 0 15 15 15 45 90 45 45 90 90 45 45 45 45 45 45 45 90 90 90 190 90 0 0 0 0 0 15 45 45 15 0 0 0 0 45 190 190 190 190 45 0 0 0 0 45 45 45 15 0 0 0 0 0 0 0 140 190 45 90 15 15 15 0 0 15 15 15 45 90 45 90 90 45 45 45 15 15 15 45 45 45 90 0 190 90 0 0 0 0 0 15 45 45 15 0 0 0 0 45 190 190 190 190 45 0 0 0 0 45 45 45 15 0 0 0 0 0 0 0 90 190 0 90 45 15 15 15 15 15 15 15 45 90 15 90 45 45 45 45 15 0 0 15 45 45 90 15 190 140 0 0 0 0 0 15 45 45 15 0 0 0 0 45 190 190 190 190 45 0 0 0 0 45 45 45 15 0 0 0 0 45 90 90 45 140 90 90 45 15 15 15 15 45 90 90 90 90 45 90 90 45 45 45 45 15 15 45 45 45 90 15 190 90 0 0 0 0 0 15 45 45 15 0 0 0 0 90 190 190 190 190 90 0 0 0 0 45 45 45 15 15 15 90 140 190 190 190 140 140 90 90 90 15 15 45 90 90 90 0 90 140 140 90 15 90 90 45 45 45 45 45 45 90 90 90 190 45 0 0 0 0 0 15 45 45 45 0 0 0 0 90 190 190 190 190 45 0 0 0 0 45 45 45 15 45 140 190 140 90 15 0 15 45 90 45 90 45 45 90 90 15 140 190 190 190 190 190 140 90 90 90 45 45 45 45 45 90 0 190 140 0 0 0 0 0 0 15 45 45 45 0 0 0 0 90 190 190 190 190 45 0 0 0 0 45 45 45 15 140 190 90 90 140 140 140 90 90 140 90 45 90 90 45 90 190 140 90 45 15 45 90 140 190 90 45 90 45 45 45 90 15 140 190 45 0 0 0 0 0 0 15 45 45 45 0 0 0 0 45 190 190 190 190 45 0 0 0 15 45 45 45 90 190 90 90 90 90 45 15 15 15 45 90 90 45 45 90 190 90 45 15 15 15 15 15 45 90 190 140 45 90 45 90 90 90 140 140 140 90 45 0 0 0 0 15 45 45 45 0 0 0 0 45 190 190 190 190 45 0 0 0 0 45 45 45 140 140 90 140 45 45 45 45 45 45 45 45 90 90 90 190 90 45 15 15 15 15 15 15 15 15 90 190 90 90 90 90 15 90 90 140 140 190 190 140 90 0 15 15 45 45 45 0 0 0 0 45 190 190 190 190 45 0 0 0 0 45 45 90 140 90 140 90 45 45 45 45 45 45 45 15 90 90 140 140 45 15 15 15 15 15 15 15 15 15 45 140 140 45 45 90 90 90 90 90 90 15 90 190 190 90 15 45 45 45 45 0 0 0 0 45 190 190 190 190 45 0 0 0 0 45 45 90 190 45 140 90 45 45 15 0 15 45 45 15 90 0 190 90 15 15 15 15 15 15 15 15 15 15 15 90 190 90 140 90 90 90 90 90 90 140 140 45 140 190 45 45 45 45 45 0 0 0 0 45 190 190 190 190 45 0 0 0 0 45 45 140 190 45 140 45 45 45 15 15 15 45 45 45 140 45 190 45 15 15 15 15 15 0 15 15 15 15 15 15 190 90 140 45 0 15 15 0 0 45 90 140 15 190 140 15 45 45 45 0 0 0 0 45 190 190 190 190 45 0 0 0 0 45 45 90 190 45 140 90 45 45 45 45 45 45 45 45 140 90 190 15 15 45 15 15 0 0 0 15 15 15 15 15 140 90 90 45 15 15 15 15 15 15 45 90 140 140 190 15 45 45 45 0 0 0 0 45 190 190 190 190 45 0 0 0 0 45 45 90 140 90 140 90 45 45 45 45 45 45 45 45 140 90 190 45 45 45 45 15 15 0 0 15 15 45 45 15 190 90 140 90 15 15 15 15 15 45 15 90 140 90 190 15 45 45 45 0 0 0 0 45 190 190 190 190 45 0 0 0 0 45 45 90 140 190 45 140 90 45 45 45 45 45 15 15 140 45 190 90 15 45 45 15 15 15 15 15 45 45 45 45 190 45 140 45 15 15 15 0 15 15 15 45 140 15 190 45 45 45 45 0 0 0 0 45 190 190 190 190 45 0 0 0 0 45 45 45 45 190 140 90 140 90 90 90 45 45 90 90 90 45 190 140 15 45 45 45 15 15 15 45 45 45 15 90 190 15 140 15 45 15 15 0 15 15 15 45 140 45 190 45 45 45 45 0 0 0 0 45 190 190 190 190 45 0 0 0 0 45 45 45 15 90 190 140 15 90 90 140 140 140 90 90 45 15 140 190 90 15 45 45 45 45 45 45 45 15 45 190 90 90 90 15 45 15 15 15 15 15 15 90 140 90 190 15 45 45 45 0 0 0 0 45 190 190 190 190 45 0 0 0 0 45 45 45 15 0 90 190 190 140 45 45 0 15 45 90 90 90 0 190 140 90 15 15 45 45 45 15 15 45 140 190 45 140 45 15 15 45 45 15 15 15 45 140 140 140 140 15 45 45 45 0 0 0 0 45 190 190 190 190 45 0 0 0 0 45 45 45 15 15 0 45 90 190 90 90 90 140 90 90 45 90 90 15 190 190 90 45 15 15 15 45 90 190 190 90 90 140 90 45 15 15 15 15 15 45 90 140 15 190 90 45 45 45 45 0 0 0 0 45 190 190 190 190 45 0 0 0 0 45 45 45 15 15 0 0 140 190 15 90 45 45 45 45 45 45 90 90 0 140 190 190 190 140 140 190 190 140 90 45 15 90 45 90 90 90 90 90 140 140 140 15 190 190 15 15 90 45 45 0 0 0 0 90 190 140 190 190 45 0 0 0 0 45 45 45 15 15 0 90 190 90 90 90 45 45 45 45 45 45 45 90 90 45 90 140 140 140 140 140 90 15 45 45 45 90 90 90 45 15 90 90 90 15 90 190 190 90 0 15 45 45 45 0 0 15 45 90 190 140 190 190 45 0 0 0 0 45 45 45 15 15 0 90 190 0 140 45 45 45 45 45 45 45 45 45 45 90 45 45 45 15 45 90 90 45 45 15 45 45 140 90 190 190 140 140 140 190 190 190 90 45 15 15 15 45 0 15 45 90 90 90 140 90 190 190 45 0 0 0 0 45 90 45 15 15 0 140 190 15 140 45 45 45 15 15 45 45 45 45 45 90 0 45 45 45 45 45 45 15 15 15 45 45 190 190 15 90 90 140 140 140 140 90 45 15 15 0 45 45 0 45 90 90 45 15 140 140 190 190 45 0 0 0 0 15 90 45 15 15 0 90 190 0 140 90 45 45 15 15 45 45 45 45 90 90 15 45 15 15 15 15 15 15 15 15 45 90 140 190 45 15 45 15 90 90 45 15 45 45 15 15 45 0 90 90 90 45 15 45 140 140 190 190 45 0 0 0 0 15 90 45 15 15 0 90 190 90 90 90 45 45 45 45 45 45 45 90 90 45 45 45 15 15 15 15 15 15 15 15 15 90 90 190 90 45 45 90 90 0 45 45 45 15 15 45 0 45 90 90 45 15 90 45 140 140 190 190 45 0 0 0 0 15 90 45 15 15 0 15 140 190 15 140 90 45 45 45 45 45 90 90 45 90 90 90 15 15 15 15 0 0 15 15 15 90 45 190 90 0 90 90 0 45 45 45 15 15 45 0 45 90 90 45 15 90 90 45 190 140 190 190 45 0 0 0 0 15 90 90 15 15 0 0 90 190 140 45 140 90 90 45 90 90 90 15 190 140 140 45 45 15 15 15 0 0 15 15 45 90 45 190 90 90 90 0 45 45 45 15 15 45 0 45 90 90 45 15 90 90 45 45 190 190 190 190 45 0 0 0 0 15 90 90 15 15 0 0 0 90 190 190 0 90 140 140 140 90 90 190 190 90 190 15 90 45 15 15 15 15 15 15 45 90 90 140 90 90 15 45 45 45 15 15 45 0 45 90 90 45 15 90 90 45 45 45 190 190 190 190 45 0 0 0 0 15 90 90 45 15 0 0 0 0 90 190 190 140 90 45 90 140 190 140 45 45 190 140 45 90 45 15 15 15 45 90 90 0 140 140 90 90 45 45 45 15 15 45 0 45 90 90 45 15 90 90 45 45 45 45 190 190 190 190 45 0 0 0 0 45 45 90 15 15 0 0 0 0 0 45 140 190 190 190 190 190 90 15 0 0 140 190 90 90 90 90 90 90 90 90 0 140 140 45 90 45 45 45 15 15 45 15 45 90 90 45 15 90 90 45 45 45 45 45 190 190 190 190 90 0 0 0 0 45 0 90 15 15 15 0 0 0 0 0 0 15 90 90 45 15 0 0 0 0 45 140 190 90 15 90 90 45 0 90 190 190 45 15 90 15 45 15 0 45 15 45 90 90 45 15 90 90 45 45 45 45 15 45 255 190 190 255 90 0 0 0 0 0 15 90 90 0 15 15 15 15 0 0 0 0 15 15 15 0 0 0 0 0 0 45 140 190 190 190 140 190 190 190 140 45 90 45 90 15 15 0 45 15 45 90 90 45 15 90 90 45 45 45 45 15 0 90 255 190 190 255 90 0 0 0 0 0 15 0 90 90 15 15 45 15 15 15 15 15 15 15 15 15 15 15 15 15 15 15 15 90 140 140 140 140 90 45 15 45 90 45 90 15 0 45 15 45 90 90 45 15 90 90 45 45 45 45 15 0 0 90 255 190 140 255 90 0 0 0 0 0 0 15 0 90 90 90 45 45 15 15 15 15 15 15 15 15 15 15 15 15 15 15 15 15 15 15 15 15 15 15 15 45 90 15 90 45 45 15 45 90 90 45 15 90 90 45 45 45 45 15 0 0 0 90 255 190 140 255 140 0 0 0 0 0 0 0 0 15 15 90 90 90 90 90 90 90 90 90 90 90 90 90 90 90 90 90 90 90 90 90 90 90 90 90 90 90 90 45 90 90 15 45 90 90 90 15 90 90 45 45 45 45 15 0 0 0 0 140 255 140 90 255 190 15 0 0 0 0 0 0 0 0 15 15 0 0 15 15 15 15 15 15 15 15 15 15 15 15 15 15 15 15 15 15 15 15 15 15 15 45 90 15 90 45 45 90 90 90 15 90 90 45 45 45 45 15 0 0 0 0 15 190 255 90 45 190 190 90 0 0 0 0 0 0 0 0 15 0 0 0 0 0 0 0 0 0 0 0 0 0 0 0 0 0 0 0 0 0 0 0 0 0 0 45 90 0 90 45 90 90 90 15 90 90 45 45 45 45 15 0 0 0 0 0 90 190 190 45 45 140 190 140 45 0 0 0 0 0 0 0 0 0 0 0 0 0 0 0 0 0 0 0 0 0 0 0 0 0 0 0 0 0 0 0 0 0 0 45 90 0 45 90 90 90 15 90 90 45 45 45 45 15 0 0 0 0 0 15 140 190 140 45 15 90 140 140 140 45 0 0 0 0 0 0 0 0 0 0 0 0 0 0 0 0 0 0 0 0 0 0 0 0 0 0 0 0 0 0 0 0 0 45 90 45 45 90 90 15 90 90 45 45 45 45 15 0 0 0 0 0 45 140 140 140 90 15 0 90 140 90 140 190 90 0 0 0 0 0 0 0 0 0 0 0 0 0 0 0 0 0 0 0 0 0 0 0 0 0 0 0 0 0 0 0 0 45 90 90 90 90 15 90 90 45 45 45 45 15 0 0 0 0 0 90 140 140 90 140 90 15 0 90 140 45 90 190 190 90 90 15 0 0 0 0 0 0 0 0 0 0 0 0 0 0 0 0 0 0 0 0 0 0 0 0 0 0 0 0 0 45 90 90 90 15 90 90 90 45 45 45 45 15 0 0 15 45 90 190 190 90 45 140 90 0 0 15 90 90 45 90 140 140 190 190 190 140 140 140 90 90 140 140 140 140 140 140 140 140 140 140 140 140 140 140 140 140 140 140 140 140 140 140 140 140 140 90 45 45 45 90 45 90 90 140 140 140 140 190 190 190 140 140 90 45 90 90 15 0 0 0 45 90 90 45 45 45 140 190 190 190 190 190 190 190 190 190 190 190 190 190 190 190 190 190 190 190 190 190 190 190 190 190 190 190 190 190 190 190 140 90 90 90 140 140 140 140 190 190 190 190 190 190 190 140 45 90 45 90 90 45 0 0 0 0 0 15 90 90 90 15 90 45 15 45 90 90 90 90 90 45 45 45 45 45 45 45 45 45 45 45 45 45 45 45 45 45 45 45 45 45 45 45 45 45 45 45 90 90 90 90 90 45 45 45 45 15 45 90 0 90 90 90 45 0 0 0 0 0 0 0 15 90 140 90 45 45 0 0 15 0 0 0 0 0 0 0 0 0 0 0 0 0 0 0 0 0 0 0 0 0 0 0 0 0 0 0 0 0 0 0 0 0 0 0 0 0 0 0 0 0 45 90 90 140 90 15 0 0 0 0 0 0 0 0 0 15 90 90 90 45 45 45 45 45 45 45 45 45 45 45 45 45 45 45 45 45 45 45 45 45 45 45 45 45 45 45 45 45 45 45 45 45 45 45 45 45 45 45 45 45 45 45 45 45 90 90 90 90 15 0 0 0 0 0 0 0 0 0 0 0 0 45 45 90 45 45 90 90 90 90 90 90 90 90 90 90 90 90 90 90 90 90 90 90 90 90 90 90 90 90 90 90 90 90 90 90 90 90 90 90 90 90 90 90 90 45 45 45 90 45 45 0 0 0 0 0 0 0 0 0 0 0 0 0 0 0 0 0 0 0 15 15 15 15 15 15 15 15 15 15 15 15 15 15 15 15 15 15 15 15 15 15 15 15 15 15 15 15 15 15 15 15 15 15 15 15 15 15 15 15 0 0 0 0 0 0 0 0 0 0 0 0 
